<svg xmlns="http://www.w3.org/2000/svg" width="20" height="21" viewBox="0 0 20 21" fill="none">
  <path fill-rule="evenodd" clip-rule="evenodd" d="M14.3743 9.25C14.3743 9.98868 14.2288 10.7201 13.946 11.4026C13.6634 12.085 13.249 12.7051 12.7268 13.2275C12.2044 13.7497 11.5843 14.1641 10.9019 14.4469C10.2194 14.7295 9.48795 14.875 8.74927 14.875C8.01058 14.875 7.27913 14.7295 6.59667 14.4469C5.91422 14.1641 5.29412 13.7497 4.77179 13.2275C4.24945 12.7051 3.83513 12.085 3.55244 11.4026C3.26975 10.7201 3.12427 9.98868 3.12427 9.25C3.12427 7.75815 3.71689 6.32741 4.77179 5.27252C5.82668 4.21762 7.25742 3.625 8.74927 3.625C10.2411 3.625 11.6718 4.21762 12.7268 5.27252C13.7817 6.32741 14.3743 7.75815 14.3743 9.25ZM13.3493 15.175C11.8422 16.345 9.94598 16.8966 8.04652 16.7176C6.14705 16.5387 4.38719 15.6426 3.1252 14.2118C1.8632 12.7809 1.19395 10.9229 1.25368 9.01594C1.31342 7.109 2.09764 5.2965 3.4467 3.94744C4.79578 2.59837 6.60827 1.81415 8.5152 1.75441C10.4221 1.69468 12.2802 2.36394 13.711 3.62594C15.1419 4.88792 16.038 6.64779 16.2169 8.54725C16.3959 10.4467 15.8443 12.343 14.6743 13.85L18.4743 17.65C18.5664 17.7359 18.6403 17.8394 18.6915 17.9544C18.7428 18.0694 18.7703 18.1935 18.7725 18.3194C18.7748 18.4452 18.7515 18.5702 18.7044 18.687C18.6573 18.8037 18.587 18.9097 18.498 18.9987C18.409 19.0879 18.303 19.158 18.1863 19.2051C18.0695 19.2522 17.9445 19.2755 17.8187 19.2733C17.6928 19.271 17.5685 19.2435 17.4537 19.1922C17.3387 19.141 17.2352 19.0671 17.1493 18.975L13.3493 15.175Z" fill="#373535"/>
</svg>
