<svg width="16" height="16" viewBox="0 0 16 16" fill="none"
    xmlns="http://www.w3.org/2000/svg">
    <g clip-path="url(#clip0_964_77433)">
        <path fill-rule="evenodd" clip-rule="evenodd" d="M4.89082 14.8369C4.7889 14.941 4.64767 15 4.5 15C4.35233 15 4.2111 14.941 4.10918 14.8369L1.14923 11.8109C0.943389 11.6005 0.951495 11.2672 1.16734 11.0665C1.38318 10.8658 1.72503 10.8737 1.93087 11.0841L3.95995 13.1585V1.52652C3.95995 1.23573 4.20174 1 4.5 1C4.79826 1 5.04005 1.23573 5.04005 1.52652V13.1585L7.06913 11.0841C7.27497 10.8737 7.61682 10.8658 7.83266 11.0665C8.0485 11.2672 8.05661 11.6005 7.85077 11.8109L4.89082 14.8369ZM11.8908 1.16314C11.7889 1.05896 11.6477 1 11.5 1C11.3523 1 11.2111 1.05896 11.1092 1.16314L8.14923 4.1891C7.94339 4.39954 7.95149 4.73282 8.16734 4.9335C8.38318 5.13419 8.72503 5.12629 8.93087 4.91585L10.9599 2.84152V14.4735C10.9599 14.7643 11.2017 15 11.5 15C11.7983 15 12.0401 14.7643 12.0401 14.4735V2.84152L14.0691 4.91585C14.275 5.12629 14.6168 5.13419 14.8327 4.9335C15.0485 4.73282 15.0566 4.39954 14.8508 4.1891L11.8908 1.16314Z" fill="#FBF7F7"/>
    </g>
    <defs>
        <clipPath id="clip0_964_77433">
            <rect width="14" height="14" fill="white" transform="translate(1 1)"/>
        </clipPath>
    </defs>
</svg>
