<svg width="12" height="12" viewBox="0 0 12 12" fill="none" xmlns="http://www.w3.org/2000/svg">
<g clip-path="url(#clip0_10354_99378)">
<path fill-rule="evenodd" clip-rule="evenodd" d="M2.56832 0.738236C2.62585 0.68071 2.69215 0.637307 2.76292 0.608027C2.83366 0.578691 2.91123 0.5625 2.99259 0.5625C3.15479 0.5625 3.30195 0.626861 3.40994 0.731438L3.41765 0.739032L5.83531 3.1567C6.06963 3.39102 6.06963 3.77091 5.83531 4.00523C5.601 4.23954 5.2211 4.23954 4.98679 4.00523L3.59259 2.61103L3.59259 10.8364C3.59259 11.1677 3.32396 11.4364 2.99259 11.4364C2.66122 11.4364 2.39259 11.1677 2.39259 10.8364V2.61103L0.998385 4.00523C0.764071 4.23954 0.384172 4.23954 0.149857 4.00523C-0.0844575 3.77091 -0.0844575 3.39102 0.149857 3.1567L2.56832 0.738236ZM5.41105 5.39944C5.07968 5.39944 4.81105 5.66807 4.81105 5.99944C4.81105 6.33082 5.07968 6.59944 5.41105 6.59944H7.82951C8.16088 6.59944 8.42951 6.33082 8.42951 5.99944C8.42951 5.66807 8.16088 5.39944 7.82951 5.39944H5.41105ZM4.81105 8.41782C4.81105 8.08645 5.07968 7.81782 5.41105 7.81782H9.64336C9.97473 7.81782 10.2434 8.08645 10.2434 8.41782C10.2434 8.7492 9.97473 9.01783 9.64336 9.01783H5.41105C5.07968 9.01783 4.81105 8.7492 4.81105 8.41782ZM5.41105 10.2365C5.07968 10.2365 4.81105 10.5051 4.81105 10.8365C4.81105 11.1679 5.07968 11.4365 5.41105 11.4365H11.4572C11.7886 11.4365 12.0572 11.1679 12.0572 10.8365C12.0572 10.5051 11.7886 10.2365 11.4572 10.2365H5.41105Z" fill="#C0BBBB"/>
</g>
<defs>
<clipPath id="clip0_10354_99378">
<rect width="12" height="12" fill="white"/>
</clipPath>
</defs>
</svg>
