<svg width="12" height="12" viewBox="0 0 12 12" fill="none"
    xmlns="http://www.w3.org/2000/svg">
    <g clip-path="url(#clip0_10354_99394)">
        <path fill-rule="evenodd" clip-rule="evenodd" d="M2.99261 0.5625C3.32398 0.5625 3.59261 0.831129 3.59261 1.1625V9.38786L4.98684 7.99364C5.22115 7.75932 5.60105 7.75932 5.83536 7.99364C6.06968 8.22795 6.06968 8.60785 5.83536 8.84216L3.42233 11.2552C3.31335 11.367 3.16109 11.4365 2.99261 11.4365C2.82423 11.4365 2.67205 11.3671 2.56308 11.2554L0.149857 8.84216C-0.0844575 8.60785 -0.0844575 8.22795 0.149857 7.99364C0.384172 7.75932 0.764071 7.75932 0.998385 7.99364L2.39261 9.38786V1.1625C2.39261 0.831129 2.66124 0.5625 2.99261 0.5625ZM5.4111 0.5625C5.07973 0.5625 4.8111 0.831129 4.8111 1.1625C4.8111 1.49387 5.07973 1.7625 5.4111 1.7625H11.4573C11.7887 1.7625 12.0573 1.49387 12.0573 1.1625C12.0573 0.831129 11.7887 0.5625 11.4573 0.5625H5.4111ZM4.8111 3.58109C4.8111 3.24972 5.07973 2.98109 5.4111 2.98109H9.64346C9.97483 2.98109 10.2435 3.24972 10.2435 3.58109C10.2435 3.91246 9.97483 4.18109 9.64346 4.18109H5.4111C5.07973 4.18109 4.8111 3.91246 4.8111 3.58109ZM5.4111 5.3995C5.07973 5.3995 4.8111 5.66812 4.8111 5.9995C4.8111 6.33087 5.07973 6.5995 5.4111 6.5995H7.82959C8.16096 6.5995 8.42959 6.33087 8.42959 5.9995C8.42959 5.66812 8.16096 5.3995 7.82959 5.3995H5.4111Z" fill="#C0BBBB"/>
    </g>
    <defs>
        <clipPath id="clip0_10354_99394">
            <rect width="12" height="12" fill="white"/>
        </clipPath>
    </defs>
</svg>
